# xmcd
#
# Track frame offsets:
#	150
#	13457
#	32182
#	45867
#	59942
#	75420
#	90887
#	103785
#	120857
#	131485
#	148060
#	160725
#
# Disc length: 2402 seconds
#
# Revision: 1
# Processed by: cddbd v1.4PL0 Copyright (c) Steve Scherf et al.
# Submitted via: EasyCDDAExtractor 5.0.7
#
DISCID=9509600c
DTITLE=Boomer McLennan - Smile
DYEAR=2000
DGENRE=Country
TTITLE0=Ride, Cowboy, Ride
TTITLE1=Inspiration
TTITLE2=Do You Want To Dance
TTITLE3=I Think I'm Falling In Love
TTITLE4=Keeper Of The Key
TTITLE5=Something In Your Kiss
TTITLE6=I've Got A Hole In My Pocket
TTITLE7=Rhythm Of The Wind
TTITLE8=Almost Over You
TTITLE9=Just Across The Border
TTITLE10=Fight Like The Devil
TTITLE11=All I Have To Do
EXTD=
EXTT0=
EXTT1=
EXTT2=
EXTT3=
EXTT4=
EXTT5=
EXTT6=
EXTT7=
EXTT8=
EXTT9=
EXTT10=
EXTT11=
PLAYORDER=
